<?xml version="1.0" standalone="no"?>
<!DOCTYPE svg PUBLIC "-//W3C//DTD SVG 20010904//EN"
 "http://www.w3.org/TR/2001/REC-SVG-20010904/DTD/svg10.dtd">
<svg version="1.0" xmlns="http://www.w3.org/2000/svg"
 width="300.000000pt" height="300.000000pt" viewBox="0 0 300.000000 300.000000"
 preserveAspectRatio="xMidYMid meet">
<metadata>
Created by potrace 1.11, written by Peter Selinger 2001-2013
</metadata>
<g transform="translate(0.000000,300.000000) scale(0.100000,-0.100000)"
fill="#000000" stroke="none">
<path d="M1486 2876 c-9 -21 -16 -42 -16 -45 0 -4 -37 -122 -83 -262 -46 -140
-119 -363 -162 -496 l-79 -243 -571 0 -570 0 25 -20 c14 -11 77 -57 140 -102
63 -45 120 -86 125 -90 6 -5 44 -33 85 -62 41 -30 83 -62 93 -70 9 -9 19 -16
22 -16 5 0 335 -239 380 -275 17 -14 33 -25 38 -25 15 0 6 -42 -42 -187 -27
-81 -99 -303 -161 -493 -61 -190 -116 -358 -122 -373 -6 -15 -9 -30 -6 -33 3
-2 124 82 269 187 145 106 336 244 424 308 88 63 173 126 189 139 16 12 34 21
40 19 10 -4 541 -387 603 -435 12 -9 31 -24 44 -32 42 -29 194 -139 220 -159
56 -44 57 -37 13 96 -23 70 -68 207 -99 303 -31 96 -60 184 -64 195 -20 48
-141 433 -141 446 1 8 73 66 161 129 88 63 169 122 179 130 10 8 69 51 130 95
346 248 440 318 440 324 0 3 -255 5 -567 4 l-568 -3 -41 128 c-173 532 -269
827 -289 887 l-23 69 -16 -38z"/>
</g>
</svg>
